<svg xmlns="http://www.w3.org/2000/svg" xmlns:xlink="http://www.w3.org/1999/xlink" xml:space="preserve" width="67.9306mm" height="28.4491mm" style="shape-rendering:geometricPrecision; text-rendering:geometricPrecision; image-rendering:optimizeQuality; fill-rule:evenodd; clip-rule:evenodd" viewBox="0 0 694668 290924">
 <defs>
  <style type="text/css">
   <![CDATA[
    .fil0 {fill:#180D5B}
    .fil2 {fill:#180D5B}
    .fil1 {fill:#E62930}
   ]]>
  </style>
 </defs>
 <g id="Layer_x0020_1">
  <metadata id="CorelCorpID_0Corel-Layer"></metadata>
  <g id="_2511655019232">
   <path class="fil0" d="M356183 290924c-180,-77642 17495,-146960 45448,-214443 34346,-2059 69228,821 107572,2433 -30495,-12240 -66152,-17769 -100514,-18954 8820,-20045 18498,-39975 28836,-59960 -18550,12502 -35990,33946 -51747,59794 -22033,427 -42877,2503 -60681,5557l-22418 35705c-950,1511 3241,-1504 4859,-2232 22984,-10345 45097,-16323 67116,-19588 -32980,61328 -57012,138925 -65784,183882l47313 27806z"></path>
   <path class="fil1" d="M496129 111877l-13214 27766 -89499 0c2565,-9321 5352,-18570 8350,-27766l94363 0zm-233324 28054l65391 0c3620,-9828 7325,-19125 11078,-27914 -33076,0 -66164,0 -99230,0 -15495,1447 -15076,11544 -15076,23138l0 95644 29695 0 0 -45434 58642 0c2833,-9763 5765,-19113 8774,-28061l-59274 0c-7149,0 -8073,-1090 -8073,-8297 0,-7167 383,-9076 8073,-9076zm277894 90706l-17722 0c-16318,0 -29669,-13351 -29669,-29669l0 -28943 0 -163 0 -1209 0 -29107c0,-16318 13351,-29669 29669,-29669l22891 0 46176 0 -13660 27914 -37267 0 -594 0 -18 0 -20 0 -17 0 -19 0 -18 0 -9254 0c-5130,0 -9322,4194 -9322,9320l0 19160c-34,1119 -35,2243 0,3368l0 21784c0,5128 4192,9321 9322,9321l9940 0c422,0 840,-28 1248,-83 563,49 1134,83 1722,83l47809 0 0 27914 -50631 0c-166,0 -355,-6 -566,-21zm-47222 -54444c70,1134 162,2256 278,3365 -116,-1206 -208,-2327 -278,-3365zm-429160 -18148l18616 0c8158,0 14834,6676 14834,14835l0 12203c1151,8245 0,22312 0,31464 0,7784 -6368,14152 -14152,14152l-16273 0c-988,66 -1997,100 -3025,100l-63845 0 0 -26726 36822 0 27424 0c5684,0 6578,-2578 6578,-9057 0,-7112 -2039,-9062 -7774,-9062l-6481 5 -4588 -5 -15159 0 0 -131c-7377,-121 -14746,-348 -22107,-754 -8896,-491 -14835,-6676 -14835,-14834l0 -29409c-139,-5290 -352,-10280 -352,-14992l0 0c0,-7599 6216,-13817 13816,-13817l20212 0 30654 0 33635 0 -13213 27914 -45306 -281 -7723 0c-6195,239 -4878,3302 -4878,9190 0,5509 141,9205 5388,9205l31732 0zm150406 13215c0,8612 -1262,16555 -3786,23830 -2524,7276 -6137,13561 -10839,18856 -4702,5296 -10319,9429 -16853,12398 -6532,2970 -13807,4455 -21825,4455 -8018,0 -15343,-1435 -21974,-4306 -6633,-2871 -12324,-6929 -17075,-12175 -4751,-5247 -8439,-11483 -11062,-18708 -2623,-7226 -3934,-15243 -3934,-24053 0,-8711 1336,-16704 4008,-23978 2673,-7276 6411,-13537 11211,-18783 4800,-5247 10567,-9354 17297,-12324 6730,-2969 14105,-4455 22123,-4455 7919,0 15120,1486 21603,4455 6484,2970 12027,7103 16629,12398 4604,5296 8167,11556 10691,18782 2524,7226 3786,15095 3786,23608zm-26132 297c0,-4554 -643,-8835 -1930,-12843 -1287,-4009 -3118,-7498 -5494,-10468 -2375,-2969 -5197,-5320 -8463,-7053 -3266,-1732 -6879,-2598 -10839,-2598 -4057,0 -7745,816 -11060,2450 -3316,1633 -6138,3934 -8464,6904 -2326,2970 -4108,6508 -5346,10616 -1237,4108 -1855,8587 -1855,13438 0,4651 643,8957 1930,12916 1287,3960 3093,7400 5419,10319 2326,2920 5098,5223 8316,6905 3216,1682 6755,2524 10615,2524 3959,0 7622,-866 10987,-2599 3366,-1732 6236,-4083 8612,-7052 2376,-2969 4232,-6458 5568,-10468 1337,-4008 2004,-8338 2004,-12991zm294472 13222l-100137 0c1768,-9344 3770,-18594 5993,-27766l94144 0 0 27766zm6979 45879l-113769 0c946,-9364 2128,-18615 3540,-27764l100771 0 9458 27764zm201035 0l-27913 0 0 -64588 -11581 19006 -27319 0 0 45582 -27172 0 0 -118781 27617 0 0 45582 38603 0 0 -45582 27765 0 0 118781z"></path>
   <path class="fil2" d="M408065 264142c-689,-3302 -1950,-5834 -3783,-7594 -1833,-1760 -4256,-2639 -7268,-2639 -1668,0 -3229,272 -4680,816 -1452,544 -2722,1479 -3811,2803 -1089,1325 -1941,3085 -2559,5281 -617,2195 -925,4944 -925,8247 0,2069 217,4073 653,6015 436,1941 1134,3656 2095,5144 963,1488 2197,2676 3702,3566 1507,888 3348,1333 5525,1333 2505,0 4827,-662 6969,-1987 2141,-1324 3864,-3257 5170,-5797l1906 1470c-1706,3012 -3793,5225 -6260,6641 -2468,1415 -5606,2122 -9418,2122 -2866,0 -5415,-471 -7648,-1414 -2231,-944 -4110,-2251 -5633,-3920 -1525,-1670 -2687,-3629 -3484,-5880 -799,-2249 -1199,-4680 -1199,-7293 0,-2759 454,-5326 1361,-7703 907,-2377 2160,-4446 3756,-6206 1598,-1759 3494,-3148 5690,-4164 2195,-1016 4581,-1524 7157,-1524 3412,0 6161,445 8248,1333 2087,890 3637,1915 4654,3076 726,944 1143,2159 1251,3647 110,1488 164,3030 164,4627l-1633 0zm272940 25259c-1488,0 -2967,-145 -4438,-436 -1469,-290 -2784,-717 -3945,-1279 -1161,-564 -2105,-1252 -2831,-2069 -725,-817 -1090,-1732 -1090,-2749l0 -6369 1634 0c580,3774 1742,6459 3493,8057 1742,1597 4137,2395 7167,2395 2051,0 3702,-444 4945,-1334 1243,-890 1869,-2205 1869,-3946 0,-1561 -499,-2858 -1497,-3892 -998,-1035 -2367,-2078 -4110,-3130l-6696 -4029c-2468,-1452 -4209,-2940 -5225,-4463 -1016,-1525 -1524,-3285 -1524,-5281 0,-2866 1097,-5135 3293,-6805 2195,-1668 5163,-2503 8899,-2503 1488,0 2968,145 4437,435 1470,290 2786,717 3948,1280 1160,561 2103,1252 2830,2069 725,815 1088,1732 1088,2749l0 6368 -1633 0c-616,-3774 -1769,-6459 -3456,-8057 -1697,-1596 -3919,-2395 -6659,-2395 -1942,0 -3484,473 -4619,1416 -1134,943 -1705,2232 -1705,3864 0,763 136,1443 408,2042 272,598 653,1152 1144,1660 489,508 1079,999 1768,1470 689,472 1470,962 2342,1470l6695 3974c2468,1451 4274,2875 5416,4272 1143,1398 1715,3095 1715,5091 0,3121 -1179,5588 -3539,7403 -2359,1814 -5733,2722 -10124,2722zm-32552 -34676c-436,0 -872,18 -1308,54 -435,37 -815,91 -1142,164 -399,72 -762,127 -1090,162l0 14753 3267 0c871,0 1741,-127 2613,-381 871,-254 1660,-672 2368,-1252 707,-580 1279,-1361 1715,-2340 434,-980 653,-2178 653,-3594 0,-1415 -219,-2603 -653,-3565 -436,-962 -999,-1742 -1688,-2340 -690,-600 -1452,-1026 -2287,-1281 -834,-253 -1651,-380 -2448,-380zm-1361 17311l-2179 0 0 16439 -7130 0 0 -28851c0,-1633 -227,-2949 -680,-3946 -454,-999 -1497,-1497 -3130,-1497l-545 0 0 -1633 15025 0c870,0 1832,36 2885,108 1051,74 2122,236 3212,490 1088,255 2149,608 3183,1061 1034,455 1951,1053 2749,1797 799,744 1443,1651 1933,2722 489,1070 735,2349 735,3837 0,1416 -263,2641 -790,3676 -525,1033 -1216,1904 -2068,2612 -852,708 -1805,1279 -2859,1714 -1052,436 -2086,780 -3102,1035l5716 9526c689,1161 1352,2113 1987,2858 635,743 1243,1333 1823,1769 580,436 1116,754 1606,953 490,200 935,336 1334,408l0 1361c-291,145 -807,272 -1552,381 -743,109 -1460,163 -2149,163 -944,0 -1861,-127 -2749,-381 -890,-254 -1761,-689 -2614,-1306 -853,-618 -1706,-1434 -2558,-2450 -852,-1016 -1733,-2268 -2640,-3756l-5443 -9090zm-22320 -19488c944,0 1715,127 2313,381 599,254 1072,581 1417,980 344,399 579,862 707,1388 127,526 190,1061 190,1605l0 4627 -1633 0c0,-2322 -589,-3992 -1769,-5008 -1180,-1016 -2857,-1523 -5035,-1523l-8764 0 0 13608 14153 0 0 2450 -14153 0 0 14969 9309 0c1995,0 3691,-445 5089,-1333 1397,-889 2568,-2514 3511,-4872l1470 544 -1578 4301c-400,1161 -918,2086 -1553,2776 -635,689 -1695,1034 -3183,1034l-20141 0 0 -28851c0,-1633 -228,-2949 -682,-3946 -453,-999 -1496,-1497 -3129,-1497l-545 0 0 -1633 24006 0zm-25041 0l0 2450 -11375 0 0 33477 -7078 0 0 -33477 -3864 0c-1924,0 -3448,481 -4573,1442 -1125,961 -1688,2658 -1688,5089l-1633 0 0 -4627c0,-544 64,-1079 190,-1605 127,-526 363,-989 708,-1388 346,-399 817,-726 1415,-980 600,-254 1371,-381 2314,-381l25584 0zm-56721 21883c37,3774 772,6740 2206,8901 1432,2158 3583,3237 6449,3237 3702,0 6397,-1106 8084,-3320 1687,-2213 2532,-5697 2532,-10451l0 -20250 2721 0 0 20250c0,2576 -253,4863 -762,6858 -508,1996 -1333,3693 -2476,5090 -1144,1397 -2631,2459 -4464,3184 -1834,726 -4074,1089 -6723,1089 -9798,0 -14698,-5407 -14698,-16221l0 -13174c0,-1633 -227,-2949 -680,-3946 -454,-999 -1497,-1497 -3130,-1497l0 -1633 5988 0c943,0 1733,117 2368,354 635,235 1143,625 1524,1169 381,546 645,1271 789,2179 145,907 218,2032 218,3374l54 14807zm-27762 -19706c-436,0 -871,18 -1306,54 -435,37 -817,91 -1143,164 -399,72 -763,127 -1089,162l0 16659 3266 0c907,0 1806,-127 2695,-382 888,-253 1678,-707 2368,-1361 688,-652 1242,-1533 1660,-2640 417,-1107 626,-2495 626,-4164 0,-1669 -209,-3049 -626,-4137 -418,-1089 -962,-1960 -1633,-2614 -672,-653 -1425,-1106 -2259,-1361 -836,-253 -1688,-380 -2559,-380zm0 -2177c799,0 1723,36 2776,108 1053,74 2123,246 3211,518 1090,272 2151,644 3186,1115 1034,473 1968,1116 2803,1933 835,817 1497,1814 1987,2993 490,1180 735,2605 735,4275 0,1559 -245,2903 -735,4027 -490,1125 -1134,2078 -1933,2858 -799,780 -1687,1406 -2667,1878 -980,472 -1950,835 -2912,1089 -962,254 -1870,417 -2721,489 -853,74 -1553,110 -2097,110l-5171 0 0 14534 -7077 0 0 -28851c0,-1633 -227,-2949 -680,-3946 -454,-999 -1497,-1497 -3130,-1497l-544 0 0 -1633 14969 0zm-20848 26674c0,3302 281,5778 843,7429 563,1651 1606,2622 3130,2912l0 1361c-3956,0 -6786,-925 -8492,-2775 -1705,-1852 -2558,-4828 -2558,-8927l0 -19272 -11922 28525 -1796 0 -14588 -29614 0 29614 -2723 0 0 -35927 6642 0 13173 26728 11159 -26728 7132 0 0 26674zm-51660 -8711c0,-5298 -907,-9390 -2722,-12275 -1815,-2884 -4372,-4327 -7675,-4327 -3302,0 -5852,1443 -7648,4327 -1797,2885 -2695,6977 -2695,12275 0,5298 898,9391 2695,12275 1796,2885 4346,4328 7648,4328 3303,0 5860,-1443 7675,-4328 1815,-2884 2722,-6977 2722,-12275zm-28362 0c0,-2685 427,-5190 1281,-7512 853,-2322 2067,-4337 3646,-6042 1579,-1705 3466,-3048 5662,-4028 2195,-980 4655,-1470 7376,-1470 2722,0 5180,490 7376,1470 2195,980 4073,2323 5634,4028 1561,1705 2768,3720 3619,6042 853,2322 1280,4827 1280,7512 0,2686 -427,5190 -1280,7512 -851,2322 -2058,4337 -3619,6043 -1561,1705 -3439,3048 -5634,4028 -2196,979 -4654,1469 -7376,1469 -2721,0 -5181,-490 -7376,-1469 -2196,-980 -4083,-2323 -5662,-4028 -1579,-1706 -2793,-3721 -3646,-6043 -854,-2322 -1281,-4826 -1281,-7512z"></path>
  </g>
 </g>
</svg>